<?xml version="1.0" encoding="utf-8"?>
<!-- Generator: Adobe Illustrator 20.1.0, SVG Export Plug-In . SVG Version: 6.00 Build 0)  -->
<svg version="1.1" id="Layer_1" xmlns="http://www.w3.org/2000/svg" xmlns:xlink="http://www.w3.org/1999/xlink" x="0px" y="0px"
	 viewBox="0 0 189 47" style="enable-background:new 0 0 189 47;" xml:space="preserve">
<style type="text/css">
	.st0{fill:#0080C4;}
	.st1{fill:#FFFFFF;}
</style>
<title>Artboard 1</title>
<g>
	<path class="st0" d="M0,47V0h189v47H0z"/>
	<path class="st1" d="M33.3,21.2c-0.4-2.8-1.6-5.2-3.5-6.9c-2.7-2.4-5.5-2.9-9.6-2.9h-8.7v24.2H21c3.6,0,6-0.5,8.7-3
		c1.9-1.8,3.1-4,3.5-6.7v9.6h13.9v-5.3h-7.6v-4.4l6.6,0v-5.2l-6.6,0v-3.9l7.6,0v-5.3H33.3V21.2z M20.2,30.3h-2.5V16.6h2.5
		c4.6,0,7.1,2.5,7.1,6.8C27.2,28.2,25,30.3,20.2,30.3z M66.9,26.3C66,27.7,64,30,60.9,29.9c-4.9-0.1-6.8-3.5-6.8-6.5
		c0-3.5,2.8-6.4,6.4-6.5c4.1-0.1,7.1,3.8,7.1,3.8l3.2-5.1c0,0-3.6-4.9-10.3-4.7c-10,0.2-12.9,8.6-12.9,12.4
		c0,8.1,6.3,12.2,11.4,12.7c7.4,0.7,11.5-4.1,11.5-4.1s-0.1,0,0.2,0c1.5,0,5.4,0,5.4,0v3.6h6V11.4h-6.5C75.7,11.4,67.7,25,66.9,26.3
		z M76.3,26.9h-3.2l3.2-5.5V26.9z M83.5,11.4h15.9v5.8h-4.8v18.4h-6.2V17.2h-4.9V11.4z M113.5,11.4h6.2v24.2h-6.2v-9.2H107v9.2h-6.2
		V11.4h6.2v9.2h6.4V11.4z M171.3,11.4v13.4l-9.4-13.4h-5.6v8.2c-0.6-1.9-1.7-3.7-3.2-5.1c-2.4-2.3-5.5-3.6-8.8-3.6
		c-3.5,0-6.5,1.2-9,3.6c-2.4,2.4-3.7,5.4-3.7,8.8c0,2.6,0.6,5,1.9,7h-5.6V11.4h-6.2v24.2h13.5v-3.2c2.4,2.5,5.5,3.7,9.1,3.7
		c3.4,0,6.7-1.3,9.1-3.8c1.4-1.4,2.4-3.1,3-5v8.3h6.3V22.1l9.5,13.5h5.5V11.4H171.3z M144.2,30.1c-3.4,0-6.5-2.9-6.5-6.8
		c0-3.6,2.9-6.4,6.5-6.4c3.5,0,6.3,2.8,6.3,6.4C150.6,27.3,147.7,30.1,144.2,30.1z"/>
</g>
</svg>
